# xmcd CD database file
#
# Track frame offsets:
#	150
#	49092
#	91887
#	124650
#	165375
#	210677
#	259427
#	286242
#
# Disc length: 4452 seconds
#
# Revision: 0
# Processed by: cddbd v1.5PL3 Copyright (c) Steve Scherf et al.
# Submitted via: CDex 1.50beta9
#
DISCID=6d116208
DTITLE=VLADIMIR ASHKENAZY-CZECH PHILHARMONIC ORCHESTRA - DVORAK, SYMPHONY NO.7 and NO.8
DYEAR=1900
DGENRE=Classical
TTITLE0=symphony No.7 1.allegro maestoso
TTITLE1=poco adagio
TTITLE2=scherzo. vivace
TTITLE3=allegro
TTITLE4=symphony No.8 1.allegro con brio
TTITLE5=adagio
TTITLE6=allegretto grazioso
TTITLE7=allegro ma non troppo
EXTD=
EXTT0=
EXTT1=
EXTT2=
EXTT3=
EXTT4=
EXTT5=
EXTT6=
EXTT7=
PLAYORDER=
